HIERARCHY
ROOT Hips
{
	OFFSET 0.000000 0.000000 0.000000 
	CHANNELS 6 Xposition Yposition Zposition Zrotation Yrotation Xrotation
	JOINT LeftUpLeg
	{
		OFFSET 1.363060 -1.794630 0.839290 
		CHANNELS 3 Zrotation Yrotation Xrotation
		JOINT LeftLeg
		{
			OFFSET 2.448110 -6.726130 0.000000 
			CHANNELS 3 Zrotation Yrotation Xrotation
			JOINT LeftFoot
			{
				OFFSET 2.562200 -7.039590 0.000000 
				CHANNELS 3 Zrotation Yrotation Xrotation
				JOINT LeftToeBase
				{
					OFFSET 0.157640 -0.433110 2.322550 
					CHANNELS 3 Zrotation Yrotation Xrotation
					End Site
					{
						OFFSET 0.000000 0.000000 0.000000 
					}
				}
			}
		}
	}
	JOINT RightUpLeg
	{
		OFFSET -1.305520 -1.794630 0.839290 
		CHANNELS 3 Zrotation Yrotation Xrotation
		JOINT RightLeg
		{
			OFFSET -2.542530 -6.985550 0.000000 
			CHANNELS 3 Zrotation Yrotation Xrotation
			JOINT RightFoot
			{
				OFFSET -2.568260 -7.056230 0.000000 
				CHANNELS 3 Zrotation Yrotation Xrotation
				JOINT RightToeBase
				{
					OFFSET -0.164730 -0.452590 2.363150 
					CHANNELS 3 Zrotation Yrotation Xrotation
					End Site
					{
						OFFSET 0.000000 0.000000 0.000000 
					}
				}
			}
		}
	}
	JOINT Spine
	{
		OFFSET 0.028270 2.035590 -0.193380 
		CHANNELS 3 Zrotation Yrotation Xrotation
		JOINT Spine1
		{
			OFFSET 0.056720 2.048850 -0.042750 
			CHANNELS 3 Zrotation Yrotation Xrotation
			JOINT Neck1
			{
				OFFSET -0.054170 1.746240 0.172020 
				CHANNELS 3 Zrotation Yrotation Xrotation
				JOINT Head
				{
					OFFSET 0.104070 1.761360 -0.123970 
					CHANNELS 3 Zrotation Yrotation Xrotation
					End Site
					{
						OFFSET 0.000000 0.000000 0.000000 
					}
				}
			}
			JOINT LeftArm
			{
				OFFSET 3.362410 1.200890 -0.311210 
				CHANNELS 3 Zrotation Yrotation Xrotation
				JOINT LeftForeArm
				{
					OFFSET 4.983000 -0.000000 -0.000000 
					CHANNELS 3 Zrotation Yrotation Xrotation
					JOINT LeftHand
					{
						OFFSET 3.483560 -0.000000 -0.000000 
						CHANNELS 3 Zrotation Yrotation Xrotation
						JOINT LeftHandIndex1
						{
							OFFSET 0.715260 -0.000000 -0.000000 
							CHANNELS 3 Zrotation Yrotation Xrotation
							End Site
							{
								OFFSET 0.000000 0.000000 0.000000 
							}
						}
					}
				}
			}
			JOINT RightArm
			{
				OFFSET -3.136600 1.374050 -0.404650 
				CHANNELS 3 Zrotation Yrotation Xrotation
				JOINT RightForeArm
				{
					OFFSET -5.241900 -0.000000 -0.000000 
					CHANNELS 3 Zrotation Yrotation Xrotation
					JOINT RightHand
					{
						OFFSET -3.444170 -0.000000 -0.000000 
						CHANNELS 3 Zrotation Yrotation Xrotation
						JOINT RightHandIndex1
						{
							OFFSET -0.622530 -0.000000 -0.000000 
							CHANNELS 3 Zrotation Yrotation Xrotation
							End Site
							{
								OFFSET 0.000000 0.000000 0.000000 
							}
						}
					}
				}
			}
		}
	}
}
MOTION
Frames: 15
Frame Time: 0.041667
5.844869 18.297692 -1.633761 -114.509259 69.804820 -117.816650 -1.591653 -10.294806 3.462467 -0.589512 5.177709 14.862871 -0.300431 7.674614 -13.712173 0.377600 3.946700 10.926800 -12.052198 8.954202 11.030360 -13.103368 -17.922170 71.873747 -1.754467 -14.012509 20.757108 -2.990100 -10.678900 31.204500 -0.382686 2.523310 -0.229315 -2.769105 1.500436 1.564131 -7.045476 5.695598 19.657012 -5.875500 1.618600 16.815900 -87.220458 20.825648 39.740743 23.538200 -35.461218 -7.863479 -0.114584 0.386738 -0.952745 -7.125000 0.000000 0.000000 90.899055 4.399526 -5.159765 -38.804082 49.748276 -16.067171 1.608582 -3.033116 -49.667465 7.125000 0.000000 0.000000 
5.836757 18.305601 -1.651507 -113.440642 69.986898 -116.784825 -1.626708 -9.984304 3.739999 -0.634541 5.000590 14.409913 -0.329200 7.929120 -13.758893 0.379800 3.958200 10.959000 -12.154957 7.835364 10.573229 -11.772190 -17.498461 67.700706 -1.587400 -14.773769 19.300062 -2.830700 -10.415900 30.334300 -0.458251 2.705106 -0.177634 -2.989560 1.611424 1.661425 -7.019904 5.824630 19.868719 -5.844900 1.678700 16.947100 -86.888462 20.617481 39.139906 23.964128 -35.895064 -8.117241 -0.131626 0.397380 -1.203976 -7.125000 0.000000 0.000000 91.075404 4.265158 -3.623933 -38.142364 49.375646 -15.535046 1.760133 -2.950285 -49.704037 7.125000 0.000000 0.000000 
5.824486 18.312497 -1.670774 -112.101077 70.041744 -115.487973 -1.483950 -9.650752 3.971395 -0.669833 4.818027 13.968778 -0.359954 8.186853 -13.810456 0.361600 3.863200 10.692100 -11.934654 6.716757 10.041617 -10.514787 -17.015611 63.638228 -1.415048 -15.574210 17.619280 -2.753500 -10.284800 29.904100 -0.498820 2.898760 -0.120786 -3.157115 1.720376 1.771592 -6.980187 6.062539 20.038231 -5.785700 1.769200 17.100800 -86.713459 20.197862 38.507001 24.281007 -36.211840 -8.308555 -0.152457 0.408594 -1.533853 -7.125000 0.000000 0.000000 91.060375 4.103180 -1.889656 -37.538575 49.022950 -15.043710 1.863889 -2.855208 -49.460549 7.125000 0.000000 0.000000 
5.811405 18.318987 -1.692069 -110.894601 70.173242 -114.258705 -1.485377 -9.431627 4.112999 -0.700077 4.698691 13.668869 -0.379690 8.413921 -13.965955 0.369500 3.904500 10.808100 -11.861944 5.489159 9.483488 -9.305124 -16.440214 59.618626 -1.223369 -16.540223 15.682216 -2.878700 -10.496000 30.598500 -0.531709 3.046276 -0.074868 -3.245160 1.802237 1.873057 -7.029793 6.381490 20.175008 -5.821000 1.917000 17.255600 -86.685836 19.807716 37.629112 24.639821 -36.575977 -8.529239 -0.179047 0.406501 -1.882588 -7.125000 0.000000 0.000000 90.898543 3.823220 0.169634 -37.000646 48.707950 -14.608832 1.887568 -2.783925 -48.371764 7.125000 0.000000 0.000000 
5.804915 18.325883 -1.714480 -109.903099 70.473169 -113.262650 -1.748780 -9.220770 4.301776 -0.734182 4.607884 13.421783 -0.380392 8.548375 -14.191749 0.405400 4.087700 11.323400 -11.941249 4.254632 9.305515 -8.077599 -15.709382 55.379244 -1.037045 -17.791354 13.741749 -3.247100 -11.084800 32.566300 -0.600509 3.195852 -0.050193 -3.373467 1.895505 1.929598 -7.103777 6.642350 20.357211 -5.893800 2.060500 17.400400 -86.562969 19.653185 36.677071 25.038830 -36.976940 -8.777614 -0.205936 0.403500 -1.870215 -7.125000 0.000000 0.000000 90.799581 3.305985 2.340034 -36.521990 48.440857 -14.232839 1.861638 -2.751914 -46.626816 7.125000 0.000000 0.000000 
5.800352 18.334299 -1.736790 -108.791834 70.602502 -112.171532 -1.800500 -8.943383 4.490920 -0.765601 4.462582 13.071660 -0.397445 8.720535 -14.267317 0.436900 4.241200 11.756400 -11.495123 3.098191 9.374724 -6.907573 -14.887142 51.049121 -0.889392 -18.848900 11.759676 -3.533200 -11.511800 34.026200 -0.622877 3.261357 -0.032691 -3.335851 1.928760 1.998659 -7.047428 7.087822 20.528282 -5.736700 2.182000 17.612300 -86.727491 19.437932 35.362564 25.313562 -37.248236 -8.951866 -0.226181 0.412232 -1.518429 -7.125000 0.000000 0.000000 90.530195 2.774797 4.692639 -36.256594 48.326709 -14.038833 1.813158 -2.763816 -44.534648 7.125000 0.000000 0.000000 
5.796498 18.342006 -1.756057 -107.346589 70.185343 -110.757059 -1.200834 -8.670349 4.573665 -0.762436 4.288393 12.759454 -0.422634 8.836221 -14.205906 0.461300 4.356600 12.082000 -9.903878 1.977749 9.575708 -5.840209 -14.029703 46.663988 -0.810780 -19.426120 9.725036 -3.519700 -11.492300 33.958600 -0.585716 3.330938 -0.015548 -3.395860 1.963909 2.072366 -6.998613 7.485922 20.698035 -5.598000 2.293700 17.801500 -86.791879 19.225039 34.326355 25.689499 -37.611697 -9.187640 -0.249975 0.417980 -1.558558 -7.125000 0.000000 0.000000 90.303679 2.267988 6.774036 -36.346217 48.477529 -14.137198 1.722347 -2.837571 -42.018570 7.125000 0.000000 0.000000 
5.793152 18.348091 -1.776845 -106.088716 69.944813 -109.494557 -0.859682 -8.475699 4.585138 -0.759468 4.179804 12.586191 -0.429427 8.896236 -14.291288 0.509800 4.576800 12.705400 -8.597675 0.847991 9.856249 -4.848661 -13.042559 42.207635 -0.811034 -19.648031 8.131956 -3.407900 -11.327800 33.393700 -0.652629 3.610246 -0.045536 -3.882059 2.154553 1.974028 -7.146615 7.367789 20.861442 -5.768300 2.331500 17.741100 -86.065211 19.216408 34.200302 26.206732 -38.093252 -9.509771 -0.278761 0.421311 -1.931233 -7.125000 0.000000 0.000000 90.559352 1.345112 8.186414 -36.764097 48.861281 -14.447720 1.612932 -2.916089 -39.437697 7.125000 0.000000 0.000000 
5.787270 18.354175 -1.796721 -104.884172 69.914536 -108.272407 -0.726910 -8.191574 4.562580 -0.763135 4.091648 12.420438 -0.438702 8.956885 -14.301954 0.549700 4.749600 13.195700 -7.472533 -0.145165 10.258510 -3.956396 -11.935552 37.720780 -0.877897 -19.531662 7.017645 -3.161100 -10.951400 32.116000 -0.634397 3.642757 0.044737 -3.742816 2.158495 2.294651 -7.353932 7.898952 20.883732 -5.814600 2.487500 17.952600 -86.247996 18.479097 32.929903 26.475058 -38.358060 -9.686837 -0.297015 0.422260 -1.856672 -7.125000 0.000000 0.000000 90.265622 1.070867 10.115635 -37.169492 49.190157 -14.718879 1.496949 -2.937131 -36.839719 7.125000 0.000000 0.000000 
5.782403 18.359752 -1.812540 -103.762192 69.572159 -107.137506 -0.254849 -7.824492 4.483516 -0.748625 3.964845 12.220186 -0.444916 8.893656 -14.151435 0.558600 4.787300 13.302800 -5.670418 -1.060678 10.905445 -3.168568 -10.729104 33.061293 -1.014776 -19.141359 6.562381 -2.805600 -10.373500 30.194800 -0.580420 3.592997 0.083874 -3.610015 2.120577 2.463088 -7.429949 8.482223 20.920950 -5.733600 2.669000 18.073400 -86.441592 18.051626 31.514152 26.708453 -38.587256 -9.844547 -0.309534 0.410518 -1.597261 -7.125000 0.000000 0.000000 89.976928 0.604894 11.851524 -37.659185 49.529943 -14.984502 1.441373 -2.886121 -34.146414 7.125000 0.000000 0.000000 
5.782707 18.365228 -1.827751 -102.873850 69.325861 -106.187426 0.022603 -7.565688 4.424226 -0.746126 3.851761 12.028357 -0.446534 8.876485 -14.148062 0.560800 4.796600 13.329300 -4.037251 -1.998333 11.596991 -2.499879 -9.444377 28.433552 -1.191864 -18.628081 6.835059 -2.582900 -9.987100 28.935000 -0.592996 3.636447 0.152039 -3.714772 2.151256 2.756750 -7.434380 8.867960 21.037117 -5.677900 2.798500 18.257600 -86.176096 17.672642 30.477276 27.139447 -38.987729 -10.125936 -0.322663 0.401256 -1.318426 -7.125000 0.000000 0.000000 89.938778 0.249404 13.228128 -38.321101 49.934893 -15.257887 1.450858 -2.750112 -31.673946 7.125000 0.000000 0.000000 
5.784735 18.373240 -1.839312 -101.639198 69.143518 -104.905560 0.300148 -7.274427 4.399097 -0.746270 3.745381 11.844313 -0.454202 8.963368 -14.263346 0.572900 4.847200 13.473400 -2.290135 -2.771168 12.097191 -1.996170 -8.165906 24.045677 -1.376010 -18.130939 7.510542 -2.421100 -9.693000 27.988300 -0.537771 3.582310 0.235833 -3.389425 2.091853 3.122495 -7.443581 9.555713 21.061153 -5.488500 2.976300 18.407200 -86.512437 17.364855 28.844438 27.750098 -39.561946 -10.528744 -0.332693 0.396846 -0.985221 -7.125000 0.000000 0.000000 89.517217 -0.089734 15.033101 -39.188897 50.504437 -15.798830 1.393139 -2.723751 -30.024699 7.125000 0.000000 0.000000 
5.786053 18.382062 -1.847627 -100.367747 69.025663 -103.542313 0.506998 -6.949908 4.340612 -0.749416 3.646102 11.665140 -0.463828 9.078402 -14.399104 0.599400 4.956100 13.783400 -0.674732 -3.664842 12.433335 -1.619155 -6.889348 19.816224 -1.577543 -17.656898 8.688476 -2.387900 -9.631200 27.790500 -0.608388 3.726982 0.258348 -3.640569 2.195196 3.313565 -7.395414 9.680259 21.093178 -5.448600 3.054000 18.349200 -86.033895 17.049386 27.938020 28.235999 -39.993720 -10.851250 -0.340126 0.389252 -1.041213 -7.125000 0.000000 0.000000 89.727076 -0.866962 16.265330 -40.213453 51.185084 -16.445425 1.345587 -2.713829 -28.837327 7.125000 0.000000 0.000000 
5.786662 18.387031 -1.854928 -99.413484 68.967156 -102.447371 0.580074 -6.685564 4.238965 -0.753014 3.581512 11.544517 -0.472778 9.153962 -14.446102 0.592200 4.926600 13.699300 0.607354 -4.972909 12.483634 -1.363733 -5.699173 15.872335 -1.706956 -16.810001 9.506632 -2.085300 -9.041500 25.925300 -0.706180 3.799287 0.274992 -4.019926 2.278138 3.440223 -7.586052 9.751656 21.078371 -5.607700 3.144300 18.234800 -85.413058 16.518469 27.063232 28.490374 -40.211974 -11.025913 -0.348263 0.379499 -1.376961 -7.125000 0.000000 0.000000 89.950625 -1.705767 17.516480 -41.326201 51.889257 -17.136930 1.323997 -2.691798 -27.999413 7.125000 0.000000 0.000000 
5.787270 18.389870 -1.858173 -98.669060 68.869611 -101.589190 0.666195 -6.447296 4.178394 -0.755367 3.514831 11.418064 -0.491806 9.241136 -14.365185 0.559300 4.790100 13.311000 1.870064 -6.591561 12.187397 -1.216066 -4.692918 12.500103 -1.858418 -16.058021 10.755378 -1.967000 -8.796900 25.162000 -0.792810 3.842884 0.270196 -4.300244 2.334144 3.510326 -7.342840 10.002432 21.314095 -5.385600 3.210700 18.449100 -84.780152 16.004960 26.276595 28.820072 -40.476184 -11.244809 -0.356571 0.364144 -1.843024 -7.125000 0.000000 0.000000 90.066399 -2.531874 18.709620 -42.616516 52.650351 -17.945908 1.334885 -2.657438 -27.398967 7.125000 0.000000 0.000000 
